<?xml version="1.0" encoding="iso-8859-1"?>
<!-- Generator: Adobe Illustrator 12.0.0, SVG Export Plug-In . SVG Version: 6.00 Build 51448)  -->
<!DOCTYPE svg PUBLIC "-//W3C//DTD SVG 1.1//EN" "http://www.w3.org/Graphics/SVG/1.1/DTD/svg11.dtd" [
	<!ENTITY ns_svg "http://www.w3.org/2000/svg">
	<!ENTITY ns_xlink "http://www.w3.org/1999/xlink">
]>
<svg  version="1.1" id="Layer_1" xmlns="&ns_svg;" xmlns:xlink="&ns_xlink;" width="501" height="501" viewBox="0 0 501 501"
	 style="overflow:visible;enable-background:new 0 0 501 501;" xml:space="preserve">
<style type="text/css">
	.st0{fill:none;stroke:#191919;stroke-miterlimit:10;}
</style>
<rect x="400.5" y="0.5" class="st0" width="100" height="100"/>
<rect x="300.5" y="0.5" class="st0" width="100" height="100"/>
<rect x="200.5" y="0.5" class="st0" width="100" height="100"/>
<rect x="100.5" y="0.5" class="st0" width="100" height="100"/>
<rect x="0.5" y="0.5" class="st0" width="100" height="100"/>
<rect x="400.5" y="100.5" class="st0" width="100" height="100"/>
<rect x="300.5" y="100.5" class="st0" width="100" height="100"/>
<rect x="200.5" y="100.5" class="st0" width="100" height="100"/>
<rect x="100.5" y="100.5" class="st0" width="100" height="100"/>
<rect x="0.5" y="100.5" class="st0" width="100" height="100"/>
<rect x="400.5" y="200.5" class="st0" width="100" height="100"/>
<rect x="300.5" y="200.5" class="st0" width="100" height="100"/>
<rect x="200.5" y="200.5" class="st0" width="100" height="100"/>
<rect x="100.5" y="200.5" class="st0" width="100" height="100"/>
<rect x="0.5" y="200.5" class="st0" width="100" height="100"/>
<rect x="400.5" y="300.5" class="st0" width="100" height="100"/>
<rect x="300.5" y="300.5" class="st0" width="100" height="100"/>
<rect x="200.5" y="300.5" class="st0" width="100" height="100"/>
<rect x="100.5" y="300.5" class="st0" width="100" height="100"/>
<rect x="0.5" y="300.5" class="st0" width="100" height="100"/>
<rect x="400.5" y="400.5" class="st0" width="100" height="100"/>
<rect x="300.5" y="400.5" class="st0" width="100" height="100"/>
<rect x="200.5" y="400.5" class="st0" width="100" height="100"/>
<rect x="100.5" y="400.5" class="st0" width="100" height="100"/>
<rect x="0.5" y="400.5" class="st0" width="100" height="100"/>
</svg>
